<svg width="381" height="414" viewBox="0 0 381 414" fill="none" xmlns="http://www.w3.org/2000/svg">
    <path
        d="M3.25122 85.0242L190.95 195.572L238.414 168.577L156.368 130.184L215.27 96.1749L187.247 67.6328L118.589 106.686L82.2231 84.7663L188.258 24.1337L145.848 4.36988L3.25122 85.0242Z"
        fill="#3F3016" />
    <path
        d="M5.59253 80.207L190.517 188.867L231.565 165.029L158.287 123.83L213.3 91.8837L183.968 65.2087L120.879 101.745L83.2856 79.5468L186.051 20.214L140.774 2.41L5.59253 80.207Z"
        fill="#75AADB" stroke="#3F3016" stroke-width="4" stroke-miterlimit="10" />
    <path
        d="M54.005 318.343V319.209L53.9225 335.569L7.91309 309.627L9.8108 93.2144L54.9229 119.301L54.8404 136.291C99.7256 136.744 121.58 159.035 121.58 159.035C142.259 177.634 158.204 200.678 164.485 210.694C165.434 212.21 166.321 213.778 167.095 215.398C183.287 249.004 189.723 282.642 189.31 320.623C189.589 350.877 174.85 368.588 167.414 373.116C145.91 389.652 124.798 375.324 109.967 366.989C93.3001 358.706 68.2172 334.692 53.9947 318.343M55.0157 274.431C65.6698 289.925 85.307 308.781 100.437 321.107C114 330.412 126.737 335.672 139.629 332.629C140.918 332.32 142.074 331.711 142.981 330.711C149.603 323.397 151.768 308.255 152.934 290.378C152.789 277.784 153.811 261.032 139.217 234.171C130.172 216.099 121.549 206.382 108.585 196.995C89.0509 182.833 55.387 191.301 55.387 191.301L55.0054 274.452"
        fill="#3F3016" />
    <path
        d="M53.5614 269.8C64.7415 286.056 80.0573 298.703 94.0426 310.101C96.9408 312.092 99.6017 313.763 102.201 315.238C113.958 321.891 123.87 323.934 133.379 321.706C134.761 321.386 135.906 320.726 136.783 319.766C143.755 312.102 145.714 295.815 146.787 279.403C146.787 278.495 146.777 277.588 146.766 276.649C146.715 264.58 146.22 248.324 133.049 223.062C124.159 206.021 116.124 195.778 102.325 185.762C101.355 185.061 100.324 184.39 99.2614 183.782C79.655 172.497 49.2915 179.882 48.9821 179.965L48.9099 179.986L48.2395 310.431L48.0436 328.545L2.36426 302.777L4.3548 86.8706L49.1575 112.793L49.0646 129.895H49.3019C74.9933 130.174 93.0835 137.59 103.727 143.759C111.813 148.442 115.918 152.578 115.959 152.619C138.288 172.703 154.419 197.191 158.833 204.226C159.813 205.784 160.679 207.362 161.422 208.889C176.975 241.165 184.019 274.483 183.565 313.928C183.844 345.781 167.878 362.502 161.669 366.257C142.507 378.13 128.81 373.931 111.215 364.039C109.926 363.317 108.688 362.605 107.492 361.914C106.378 361.275 105.315 360.666 104.294 360.088C103.449 359.665 102.572 359.201 101.685 358.696C87.349 350.629 67.5365 332.454 52.9838 316.486L53.5614 269.779V269.8Z"
        fill="#75AADB" stroke="#3F3016" stroke-width="4" stroke-miterlimit="10" />
    <path
        d="M225.955 352.331C229.596 331.68 232.545 315.186 247.583 292.751C283.144 239.721 295.479 140.52 240.384 162.285C212.495 177.788 191.734 208.394 192.074 253.564L214.393 255.121C214.393 255.121 216.27 207.816 233.731 200.224C261.362 187.32 266.25 212.54 219.457 286.665C186.773 332.402 190.888 402.711 190.672 408.827L280.535 357.829L279.854 319.519L226.264 351.135"
        fill="#3F3016" />
    <path
        d="M225.955 352.331C229.596 331.68 232.545 315.186 247.583 292.751C283.144 239.721 295.479 140.52 240.384 162.285C212.495 177.788 191.734 208.394 192.074 253.564L214.393 255.121C214.393 255.121 216.27 207.816 233.731 200.224C261.362 187.32 266.25 212.54 219.457 286.665C186.773 332.402 190.888 402.711 190.672 408.827L280.535 357.829L279.854 319.519L226.264 351.135"
        stroke="#3F3016" stroke-width="4" stroke-miterlimit="10" />
    <path
        d="M374.121 86.6024L373.791 302.499L348.409 317.342L347.78 211.973L280.091 265.374L280.081 141.18L311.734 122.757L311.765 208.785L346.377 181.357L346.398 102.787L374.121 86.6024Z"
        fill="#3F3016" stroke="#3F3016" stroke-width="4" stroke-miterlimit="10" />
    <path
        d="M230.637 353.373C234.278 332.722 237.228 316.228 252.265 293.793C287.827 240.763 300.162 141.562 245.066 163.327C217.178 178.83 196.416 209.435 196.757 254.605L219.076 256.163C219.076 256.163 220.953 208.858 238.414 201.266C266.044 188.361 270.933 213.582 224.14 287.707C191.218 340.49 195.354 409.869 195.354 409.869L284.041 358.448L284.021 320.385L230.957 352.166"
        fill="#2C6BAC" />
    <path
        d="M230.637 353.373C234.278 332.722 237.228 316.228 252.265 293.793C287.827 240.763 300.162 141.562 245.066 163.327C217.178 178.83 196.416 209.435 196.757 254.605L219.076 256.163C219.076 256.163 220.953 208.858 238.414 201.266C266.044 188.361 270.933 213.582 224.14 287.707C191.218 340.49 195.354 409.869 195.354 409.869L284.041 358.448L284.021 320.385L230.957 352.166"
        stroke="#3F3016" stroke-width="4" stroke-miterlimit="10" />
    <path
        d="M378.752 87.9846L378.422 303.871L353.04 318.714L352.411 213.355L284.722 266.746L284.712 142.552L316.365 124.129L316.395 210.157L350.998 182.74L351.019 104.159L378.752 87.9846Z"
        fill="#2C6BAC" stroke="#3F3016" stroke-width="4" stroke-miterlimit="10" />
</svg>